<svg xmlns="http://www.w3.org/2000/svg" xmlns:xlink="http://www.w3.org/1999/xlink" width="1000" zoomAndPan="magnify" viewBox="0 0 750 749.999995" height="1000" preserveAspectRatio="xMidYMid meet" version="1.0"><defs><clipPath id="1d7957da27"><path d="M 77.183594 76 L 432 76 L 432 286 L 77.183594 286 Z M 77.183594 76 " clip-rule="nonzero"/></clipPath><clipPath id="bf2bf6d58c"><path d="M 486 76 L 672.683594 76 L 672.683594 661 L 486 661 Z M 486 76 " clip-rule="nonzero"/></clipPath><clipPath id="b0133c1173"><path d="M 77.183594 204 L 618 204 L 618 674 L 77.183594 674 Z M 77.183594 204 " clip-rule="nonzero"/></clipPath></defs><rect x="-75" width="900" fill="#ffffff" y="-74.999999" height="899.999994" fill-opacity="1"/><rect x="-75" width="900" fill="#ffffff" y="-74.999999" height="899.999994" fill-opacity="1"/><path fill="#cdd7da" d="M 659.496094 619.21875 C 653.871094 634.671875 632.722656 652.867188 618.328125 660.394531 L 634.546875 647.277344 C 642.582031 639.421875 650.65625 631.382812 656.425781 621.921875 C 657.230469 620.570312 657.15625 619.109375 659.460938 619.21875 Z M 659.496094 619.21875 " fill-opacity="1" fill-rule="nonzero"/><path fill="#cdd7da" d="M 500.089844 673.507812 C 484.933594 673.582031 469.699219 673.507812 454.542969 673.507812 Z M 500.089844 673.507812 " fill-opacity="1" fill-rule="nonzero"/><path fill="#cdd7da" d="M 667.386719 600.804688 C 665.632812 606.285156 664.023438 611.945312 660.371094 616.585938 C 661.503906 612.789062 663.367188 608.257812 665.230469 603.433594 C 665.742188 602.082031 664.972656 600.292969 667.386719 600.839844 Z M 667.386719 600.804688 " fill-opacity="1" fill-rule="nonzero"/><path fill="#cdd7da" d="M 652.480469 120.808594 L 646.710938 115.621094 C 640.320312 106.085938 629.691406 98.632812 620.082031 91.910156 C 622.566406 91.945312 625.015625 93.734375 627.023438 95.050781 C 637.398438 101.847656 645.578125 110.761719 652.519531 120.808594 Z M 652.480469 120.808594 " fill-opacity="1" fill-rule="nonzero"/><path fill="#cdd7da" d="M 619.207031 90.996094 L 614.164062 89.496094 L 609.5625 85.734375 C 613.945312 86.941406 615.808594 88.546875 619.207031 90.996094 Z M 619.207031 90.996094 " fill-opacity="1" fill-rule="nonzero"/><path fill="#cdd7da" d="M 608.6875 85.734375 C 606.96875 85.371094 604.632812 86.136719 603.425781 83.980469 C 605.105469 84.382812 607.480469 83.542969 608.6875 85.734375 Z M 608.6875 85.734375 " fill-opacity="1" fill-rule="nonzero"/><path fill="#cdd7da" d="M 667.386719 599.925781 C 667.640625 599.085938 667.96875 597.550781 668.261719 596.417969 L 669.066406 596.820312 Z M 667.386719 599.925781 " fill-opacity="1" fill-rule="nonzero"/><path fill="#cfbba4" d="M 106 110.285156 C 108.191406 107.910156 109.691406 106.339844 112.136719 104.148438 Z M 106 110.285156 " fill-opacity="1" fill-rule="nonzero"/><path fill="#cfbba4" d="M 487.855469 77.003906 C 487.707031 77.515625 486.941406 78.390625 486.976562 78.757812 L 431.824219 78.757812 L 430.945312 77.003906 C 449.902344 77.003906 468.898438 76.929688 487.855469 77.003906 Z M 487.855469 77.003906 " fill-opacity="1" fill-rule="nonzero"/><path fill="#d9b36a" d="M 136.648438 663.023438 L 145.414062 307.390625 L 229.5 307.390625 C 228.074219 320.652344 229.023438 333.953125 228.660156 347.289062 C 225.917969 450.535156 219.820312 554.367188 219.855469 657.796875 L 195.347656 673.582031 C 172.738281 673.214844 157.503906 673.253906 136.683594 663.058594 Z M 136.648438 663.023438 " fill-opacity="1" fill-rule="nonzero"/><path fill="#62727f" d="M 354.714844 673.507812 C 327.574219 673.507812 300.398438 673.582031 273.257812 673.507812 C 273.441406 668.429688 273.003906 663.242188 273.257812 658.164062 C 273.296875 657.03125 274.171875 655.898438 274.171875 655.570312 L 274.171875 635.4375 C 274.171875 631.601562 274.867188 625.429688 275.046875 620.972656 C 279.796875 621.554688 283.488281 618.15625 287.578125 616.40625 C 310.222656 606.832031 333.492188 598.792969 357.378906 592.914062 C 356.503906 614.066406 355.519531 635.257812 354.714844 656.375 C 354.496094 662.074219 354.933594 667.808594 354.714844 673.507812 Z M 354.714844 673.507812 " fill-opacity="1" fill-rule="nonzero"/><path fill="#62727f" d="M 219.855469 657.761719 C 219.855469 663.023438 219.855469 668.285156 219.855469 673.546875 C 211.710938 673.507812 203.492188 673.691406 195.347656 673.546875 Z M 219.855469 657.761719 " fill-opacity="1" fill-rule="nonzero"/><path fill="#d9b36a" d="M 342.476562 317 C 351.5 317.039062 360.59375 317 369.617188 317 C 370.347656 323.027344 368.996094 329.238281 368.742188 334.976562 C 366 400.007812 362.675781 464.929688 359.972656 529.851562 C 342.039062 551.773438 322.460938 572.671875 301.75 592.070312 C 294.515625 598.832031 286.738281 605.078125 279.394531 611.765625 C 278.300781 612.75 277.605469 613.957031 275.890625 613.921875 C 279.796875 520.464844 282.0625 426.933594 287.285156 333.625 C 293.75 332.820312 300.472656 333.625 306.972656 332.746094 C 318.734375 331.140625 329.402344 326.242188 338.421875 319.558594 C 340.210938 318.242188 342.988281 319.8125 342.441406 317 Z M 342.476562 317 " fill-opacity="1" fill-rule="nonzero"/><path fill="#688d97" d="M 357.34375 592.949219 C 333.457031 598.792969 310.1875 606.832031 287.539062 616.441406 C 283.449219 618.15625 279.761719 621.59375 275.011719 621.007812 C 275.121094 618.414062 275.816406 616.039062 275.890625 613.992188 C 277.605469 613.992188 278.335938 612.824219 279.394531 611.835938 C 286.699219 605.152344 294.515625 598.90625 301.75 592.144531 C 322.460938 572.78125 342.003906 551.847656 359.972656 529.925781 C 359.097656 550.898438 358.21875 572.125 357.34375 592.984375 Z M 357.34375 592.949219 " fill-opacity="1" fill-rule="nonzero"/><path fill="#cea272" d="M 342.476562 317 C 343.027344 319.851562 340.25 318.242188 338.460938 319.558594 C 329.4375 326.246094 318.773438 331.101562 307.011719 332.746094 C 300.472656 333.660156 293.785156 332.820312 287.320312 333.625 C 287.613281 328.070312 287.796875 322.515625 288.199219 316.964844 C 306.277344 317.039062 324.433594 316.890625 342.515625 316.964844 Z M 342.476562 317 " fill-opacity="1" fill-rule="nonzero"/><g clip-path="url(#1d7957da27)"><path fill="#2f5d64" d="M 430.910156 77.003906 L 431.785156 78.757812 C 394.492188 162.347656 326.148438 229.71875 245.242188 271.476562 C 240.347656 271.515625 235.378906 271.332031 230.484375 271.585938 C 229.207031 273.78125 229.683594 276.191406 229.5 278.457031 C 224.96875 279.039062 220.222656 281.34375 216.351562 283.71875 C 202.796875 284.375 189.210938 284.410156 175.730469 284.667969 C 166.527344 284.851562 158.015625 287.664062 148.957031 284.121094 C 146.910156 283.316406 141.945312 279.332031 141.507812 279.332031 L 116.121094 279.332031 C 116.121094 279.332031 114.804688 278.128906 114.804688 278.019531 L 114.804688 240.789062 L 77.984375 240.789062 C 77.984375 191.867188 69.695312 149.378906 106 110.285156 L 112.136719 104.148438 C 129.378906 88.621094 152.535156 79.121094 175.660156 77.003906 C 260.765625 77.074219 345.875 76.855469 430.945312 77.003906 Z M 430.910156 77.003906 " fill-opacity="1" fill-rule="nonzero"/></g><path fill="#cda174" d="M 486.976562 78.757812 C 487.234375 83.285156 491.691406 93.992188 492.859375 99.582031 C 495.890625 113.832031 498.121094 131.222656 499.214844 145.761719 C 500.710938 165.417969 500.347656 185.257812 499.214844 204.875 C 468.898438 205.386719 393.652344 215.359375 391.460938 256.097656 C 391.203125 261.175781 393.980469 279.808594 391.972656 282.878906 C 391.421875 283.71875 388.609375 284.375 387.480469 284.519531 C 384.667969 284.886719 373.050781 284.667969 371.480469 285.617188 C 369.910156 286.566406 371.589844 293.324219 369.03125 294.128906 L 270.300781 294.3125 L 265.441406 271.878906 C 264.273438 271.039062 248.3125 271.476562 245.242188 271.515625 C 326.148438 229.792969 394.492188 162.386719 431.785156 78.792969 L 486.941406 78.792969 Z M 486.976562 78.757812 " fill-opacity="1" fill-rule="nonzero"/><path fill="#d5b471" d="M 493.992188 245.171875 C 488.109375 286.894531 476.386719 328.949219 460.277344 367.785156 C 458.304688 372.570312 444.972656 399.242188 444.972656 401.066406 L 444.097656 401.066406 C 444.167969 357.117188 444.097656 313.164062 444.097656 269.214844 C 445.117188 246.816406 477.371094 246.195312 494.027344 245.171875 Z M 493.992188 245.171875 " fill-opacity="1" fill-rule="nonzero"/><g clip-path="url(#bf2bf6d58c)"><path fill="#678f9a" d="M 487.855469 77.003906 C 515.945312 77.074219 547.359375 75.175781 574.972656 77.003906 C 586.917969 77.808594 593.417969 81.605469 603.425781 84.019531 C 604.632812 86.171875 606.96875 85.40625 608.6875 85.769531 C 608.980469 85.84375 609.308594 85.699219 609.5625 85.769531 L 614.164062 89.535156 L 619.207031 91.03125 C 619.535156 91.25 619.753906 91.691406 620.082031 91.910156 C 629.726562 98.632812 640.320312 106.085938 646.710938 115.621094 L 652.480469 120.808594 C 662.964844 135.96875 671.476562 155.882812 672.644531 174.660156 L 672.644531 575.046875 C 672.425781 582.644531 670.125 589.40625 668.226562 596.457031 C 667.933594 597.589844 667.605469 599.125 667.347656 599.964844 C 667.277344 600.21875 667.421875 600.585938 667.347656 600.839844 C 664.9375 600.328125 665.707031 602.082031 665.195312 603.433594 C 663.367188 608.257812 661.503906 612.789062 660.335938 616.585938 C 660.042969 617.5 659.789062 618.304688 659.457031 619.21875 C 657.15625 619.109375 657.230469 620.570312 656.425781 621.921875 C 650.65625 631.382812 642.546875 639.421875 634.546875 647.277344 L 618.328125 660.394531 L 617.453125 660.394531 C 617.453125 660.394531 617.378906 659.550781 617.453125 658.640625 C 618.914062 657.726562 618.328125 655.3125 618.328125 653.816406 C 619.9375 524.152344 617.816406 393.832031 617.453125 264.425781 C 608.832031 210.28125 543.59375 204.109375 499.214844 204.875 C 500.347656 185.21875 500.710938 165.417969 499.214844 145.761719 C 498.117188 131.222656 495.890625 113.832031 492.859375 99.582031 C 491.652344 93.992188 487.234375 83.285156 486.976562 78.757812 C 486.976562 78.390625 487.707031 77.515625 487.855469 77.003906 Z M 487.855469 77.003906 " fill-opacity="1" fill-rule="nonzero"/></g><path fill="#668e9a" d="M 564.925781 673.507812 C 544.582031 674.128906 523.980469 673.433594 503.632812 673.507812 C 498.339844 659.773438 490.632812 644.535156 481.71875 632.808594 C 475.253906 624.257812 455.382812 604.457031 445.8125 600.804688 C 446.542969 535.261719 444.789062 469.605469 445.886719 404.0625 C 445.886719 402.457031 444.9375 401.25 444.9375 401.105469 C 444.9375 399.277344 458.269531 372.605469 460.242188 367.820312 C 476.347656 328.984375 488.074219 286.894531 493.953125 245.210938 C 509.148438 244.261719 523.6875 244.589844 538.773438 248.132812 C 550.792969 250.945312 563.171875 255.402344 564.78125 269.394531 L 564.890625 673.546875 Z M 564.925781 673.507812 " fill-opacity="1" fill-rule="nonzero"/><path fill="#61727e" d="M 445.8125 600.804688 C 455.382812 604.457031 475.214844 624.257812 481.71875 632.808594 C 490.632812 644.574219 498.339844 659.769531 503.632812 673.507812 C 502.464844 673.507812 501.296875 673.507812 500.128906 673.507812 L 454.578125 673.507812 C 451.363281 673.507812 448.148438 673.507812 444.9375 673.507812 C 443.402344 649.394531 444.09375 625.027344 444.058594 600.804688 C 444.605469 600.914062 445.410156 600.65625 445.8125 600.804688 Z M 445.8125 600.804688 " fill-opacity="1" fill-rule="nonzero"/><path fill="#5a8592" d="M 617.453125 658.640625 C 617.855469 652.976562 616.578125 647.238281 616.578125 642.417969 L 616.578125 273.632812 C 616.578125 271.699219 618.367188 267.3125 617.453125 264.425781 C 617.855469 393.832031 619.9375 524.152344 618.328125 653.816406 C 618.328125 655.3125 618.878906 657.726562 617.453125 658.640625 Z M 617.453125 658.640625 " fill-opacity="1" fill-rule="nonzero"/><g clip-path="url(#b0133c1173)"><path fill="#fefefe" d="M 499.214844 204.875 C 543.558594 204.109375 608.832031 210.320312 617.453125 264.425781 C 618.367188 267.277344 616.578125 271.699219 616.578125 273.632812 L 616.578125 642.417969 C 616.578125 647.238281 617.855469 652.976562 617.453125 658.640625 C 617.378906 659.550781 617.453125 660.320312 617.453125 660.394531 C 616.101562 663.425781 598.386719 669.125 594.367188 670.148438 C 584.324219 672.632812 575.226562 673.214844 564.925781 673.546875 L 564.816406 269.394531 C 563.210938 255.402344 550.792969 250.910156 538.808594 248.132812 C 523.722656 244.625 509.1875 244.257812 493.992188 245.210938 C 477.335938 246.269531 445.046875 246.855469 444.058594 269.25 C 444.058594 313.199219 444.132812 357.1875 444.058594 401.105469 C 443.984375 467.671875 443.949219 534.273438 444.058594 600.839844 C 444.058594 625.0625 443.402344 649.433594 444.9375 673.546875 C 414.875 673.582031 384.777344 673.546875 354.714844 673.546875 C 354.898438 667.882812 354.457031 662.109375 354.714844 656.410156 C 355.519531 635.292969 356.503906 614.066406 357.378906 592.949219 C 358.257812 571.832031 359.132812 550.859375 360.011719 529.890625 C 362.714844 464.929688 366.039062 400.007812 368.777344 335.011719 C 369.03125 329.277344 370.382812 323.066406 369.652344 317.039062 C 360.632812 317.039062 351.535156 317.074219 342.515625 317.039062 C 324.433594 316.925781 306.316406 317.109375 288.199219 317.039062 C 287.796875 322.554688 287.652344 328.144531 287.320312 333.695312 C 282.097656 427.007812 279.832031 520.535156 275.925781 613.992188 C 275.851562 616.003906 275.160156 618.414062 275.046875 621.007812 C 274.867188 625.464844 274.171875 631.640625 274.171875 635.476562 L 274.171875 655.605469 C 274.171875 655.933594 273.296875 657.066406 273.257812 658.199219 C 273.039062 663.316406 273.476562 668.464844 273.257812 673.546875 C 255.46875 673.507812 237.644531 673.65625 219.820312 673.546875 C 219.820312 668.285156 219.820312 663.023438 219.820312 657.761719 C 219.785156 554.367188 225.882812 450.535156 228.621094 347.25 C 228.988281 333.953125 228.039062 320.617188 229.464844 307.355469 L 145.378906 307.355469 L 136.609375 662.988281 C 105.5625 647.789062 83.976562 617.902344 78.898438 583.597656 C 77.183594 469.496094 77.949219 355.035156 77.984375 240.789062 L 114.769531 240.789062 L 114.769531 278.019531 C 114.769531 278.019531 115.972656 279.332031 116.082031 279.332031 L 141.46875 279.332031 C 141.90625 279.332031 146.875 283.351562 148.921875 284.121094 C 158.015625 287.664062 166.492188 284.851562 175.695312 284.667969 C 189.171875 284.410156 202.796875 284.375 216.3125 283.71875 C 216.421875 283.71875 216.53125 284.8125 218.46875 284.667969 C 220.257812 284.558594 226.90625 283.9375 228 283.609375 C 230.121094 282.914062 229.28125 280.171875 229.425781 278.457031 C 229.644531 276.15625 229.132812 273.78125 230.414062 271.585938 C 235.308594 271.296875 240.273438 271.515625 245.167969 271.476562 C 248.238281 271.476562 264.199219 271.003906 265.367188 271.84375 L 270.226562 294.277344 L 368.960938 294.09375 C 371.480469 293.289062 369.800781 286.53125 371.40625 285.582031 C 373.015625 284.628906 384.59375 284.851562 387.40625 284.484375 C 388.539062 284.339844 391.351562 283.71875 391.898438 282.839844 C 393.90625 279.773438 391.132812 261.140625 391.386719 256.058594 C 393.578125 215.359375 468.824219 205.351562 499.140625 204.839844 Z M 499.214844 204.875 " fill-opacity="1" fill-rule="nonzero"/></g><path fill="#54828f" d="M 445.8125 600.804688 C 445.410156 600.65625 444.605469 600.914062 444.058594 600.804688 C 443.949219 534.238281 443.984375 467.632812 444.058594 401.066406 L 444.9375 401.066406 C 444.9375 401.066406 445.886719 402.417969 445.886719 404.027344 C 444.789062 469.570312 446.578125 535.222656 445.8125 600.765625 Z M 445.8125 600.804688 " fill-opacity="1" fill-rule="nonzero"/><path fill="#cda174" d="M 229.5 278.457031 C 229.351562 280.171875 230.195312 282.914062 228.074219 283.609375 C 226.980469 283.972656 220.332031 284.558594 218.542969 284.667969 C 216.605469 284.8125 216.496094 283.71875 216.386719 283.71875 C 220.257812 281.34375 225.007812 279.042969 229.535156 278.457031 Z M 229.5 278.457031 " fill-opacity="1" fill-rule="nonzero"/></svg>